<mxfile host="Electron" agent="Mozilla/5.0 (X11; Linux x86_64) AppleWebKit/537.36 (KHTML, like Gecko) draw.io/26.0.4 Chrome/128.0.6613.186 Electron/32.2.5 Safari/537.36" version="26.0.4">
  <diagram name="Страница — 1" id="40kDLVCQPgLzhlpaMQWt">
    <mxGraphModel dx="2320" dy="1397" grid="1" gridSize="10" guides="1" tooltips="1" connect="1" arrows="1" fold="1" page="1" pageScale="1" pageWidth="827" pageHeight="1169" math="0" shadow="0">
      <root>
        <mxCell id="0" />
        <mxCell id="1" parent="0" />
        <mxCell id="u-mqEiS2-gxQHOlgm_7R-9" style="edgeStyle=orthogonalEdgeStyle;rounded=0;orthogonalLoop=1;jettySize=auto;html=1;exitX=1;exitY=0.5;exitDx=0;exitDy=0;entryX=0;entryY=0.5;entryDx=0;entryDy=0;" edge="1" parent="1" source="u-mqEiS2-gxQHOlgm_7R-1" target="u-mqEiS2-gxQHOlgm_7R-3">
          <mxGeometry relative="1" as="geometry" />
        </mxCell>
        <mxCell id="u-mqEiS2-gxQHOlgm_7R-20" style="edgeStyle=orthogonalEdgeStyle;rounded=0;orthogonalLoop=1;jettySize=auto;html=1;exitX=0.5;exitY=1;exitDx=0;exitDy=0;entryX=0.25;entryY=0;entryDx=0;entryDy=0;" edge="1" parent="1" source="u-mqEiS2-gxQHOlgm_7R-1" target="u-mqEiS2-gxQHOlgm_7R-18">
          <mxGeometry relative="1" as="geometry">
            <Array as="points">
              <mxPoint x="140" y="615" />
              <mxPoint x="210" y="615" />
              <mxPoint x="210" y="900" />
              <mxPoint x="250" y="900" />
            </Array>
          </mxGeometry>
        </mxCell>
        <mxCell id="u-mqEiS2-gxQHOlgm_7R-1" value="" style="ellipse;whiteSpace=wrap;html=1;aspect=fixed;fillColor=#6a00ff;fontColor=#ffffff;strokeColor=#3700CC;" vertex="1" parent="1">
          <mxGeometry x="100" y="210" width="80" height="80" as="geometry" />
        </mxCell>
        <mxCell id="u-mqEiS2-gxQHOlgm_7R-2" value="&lt;font style=&quot;font-size: 22px;&quot;&gt;Состояния переходов&lt;/font&gt;" style="swimlane;whiteSpace=wrap;html=1;swimlaneFillColor=none;rounded=1;" vertex="1" parent="1">
          <mxGeometry x="250" y="150" width="558" height="700" as="geometry" />
        </mxCell>
        <mxCell id="u-mqEiS2-gxQHOlgm_7R-3" value="&lt;span style=&quot;font-size: 22px;&quot;&gt;Состояние запроса&lt;/span&gt;" style="swimlane;whiteSpace=wrap;html=1;swimlaneFillColor=none;rounded=1;" vertex="1" parent="u-mqEiS2-gxQHOlgm_7R-2">
          <mxGeometry x="40" y="45" width="330" height="70" as="geometry" />
        </mxCell>
        <mxCell id="u-mqEiS2-gxQHOlgm_7R-4" value="&lt;font style=&quot;font-size: 17px;&quot;&gt;Происходит внутрення&lt;/font&gt;&lt;div&gt;&lt;font style=&quot;font-size: 17px;&quot;&gt;проверка на корректность данных&lt;/font&gt;&lt;/div&gt;" style="text;html=1;align=left;verticalAlign=middle;resizable=0;points=[];autosize=1;strokeColor=none;fillColor=none;" vertex="1" parent="u-mqEiS2-gxQHOlgm_7R-3">
          <mxGeometry x="20" y="20" width="290" height="50" as="geometry" />
        </mxCell>
        <mxCell id="u-mqEiS2-gxQHOlgm_7R-5" value="&lt;span style=&quot;font-size: 22px;&quot;&gt;Состояние запроса к БД&lt;/span&gt;" style="swimlane;whiteSpace=wrap;html=1;swimlaneFillColor=none;rounded=1;" vertex="1" parent="u-mqEiS2-gxQHOlgm_7R-2">
          <mxGeometry x="148" y="140" width="352" height="95" as="geometry" />
        </mxCell>
        <mxCell id="u-mqEiS2-gxQHOlgm_7R-6" value="&lt;span style=&quot;font-size: 17px;&quot;&gt;БД проверяет данные,&lt;/span&gt;&lt;span style=&quot;font-size: 17px; background-color: transparent; color: light-dark(rgb(0, 0, 0), rgb(255, 255, 255));&quot;&gt;которые поступают&lt;/span&gt;&lt;div&gt;&lt;span style=&quot;font-size: 17px;&quot;&gt;в нее на соответствие&amp;nbsp;&lt;/span&gt;&lt;span style=&quot;font-size: 17px; background-color: transparent; color: light-dark(rgb(0, 0, 0), rgb(255, 255, 255));&quot;&gt;типов,&amp;nbsp;&lt;/span&gt;&lt;/div&gt;&lt;div&gt;&lt;span style=&quot;font-size: 17px; background-color: transparent; color: light-dark(rgb(0, 0, 0), rgb(255, 255, 255));&quot;&gt;внутренние ошибки&lt;/span&gt;&lt;/div&gt;" style="text;html=1;align=left;verticalAlign=middle;resizable=0;points=[];autosize=1;strokeColor=none;fillColor=none;" vertex="1" parent="u-mqEiS2-gxQHOlgm_7R-5">
          <mxGeometry y="25" width="350" height="70" as="geometry" />
        </mxCell>
        <mxCell id="u-mqEiS2-gxQHOlgm_7R-16" style="edgeStyle=orthogonalEdgeStyle;rounded=0;orthogonalLoop=1;jettySize=auto;html=1;exitX=0.5;exitY=1;exitDx=0;exitDy=0;entryX=0.5;entryY=0;entryDx=0;entryDy=0;" edge="1" parent="u-mqEiS2-gxQHOlgm_7R-2" source="u-mqEiS2-gxQHOlgm_7R-7" target="u-mqEiS2-gxQHOlgm_7R-14">
          <mxGeometry relative="1" as="geometry" />
        </mxCell>
        <mxCell id="u-mqEiS2-gxQHOlgm_7R-7" value="&lt;span style=&quot;font-size: 22px;&quot;&gt;Состояние выполнения запроса&lt;/span&gt;" style="swimlane;whiteSpace=wrap;html=1;swimlaneFillColor=none;rounded=1;" vertex="1" parent="u-mqEiS2-gxQHOlgm_7R-2">
          <mxGeometry x="17.5" y="260" width="375" height="120" as="geometry" />
        </mxCell>
        <mxCell id="u-mqEiS2-gxQHOlgm_7R-13" value="&lt;font style=&quot;font-size: 25px;&quot;&gt;После обработки запроса,&amp;nbsp;&lt;/font&gt;&lt;div&gt;&lt;font style=&quot;font-size: 25px;&quot;&gt;происходит его выполнение&lt;/font&gt;&lt;/div&gt;" style="text;html=1;align=left;verticalAlign=middle;resizable=0;points=[];autosize=1;strokeColor=none;fillColor=none;" vertex="1" parent="u-mqEiS2-gxQHOlgm_7R-7">
          <mxGeometry x="2.5" y="25" width="350" height="70" as="geometry" />
        </mxCell>
        <mxCell id="u-mqEiS2-gxQHOlgm_7R-10" style="edgeStyle=orthogonalEdgeStyle;rounded=0;orthogonalLoop=1;jettySize=auto;html=1;exitX=1;exitY=0.5;exitDx=0;exitDy=0;entryX=0.725;entryY=-0.033;entryDx=0;entryDy=0;entryPerimeter=0;" edge="1" parent="u-mqEiS2-gxQHOlgm_7R-2" source="u-mqEiS2-gxQHOlgm_7R-3" target="u-mqEiS2-gxQHOlgm_7R-5">
          <mxGeometry relative="1" as="geometry" />
        </mxCell>
        <mxCell id="u-mqEiS2-gxQHOlgm_7R-12" style="edgeStyle=orthogonalEdgeStyle;rounded=0;orthogonalLoop=1;jettySize=auto;html=1;exitX=0;exitY=0.5;exitDx=0;exitDy=0;entryX=0.228;entryY=0.033;entryDx=0;entryDy=0;entryPerimeter=0;" edge="1" parent="u-mqEiS2-gxQHOlgm_7R-2" source="u-mqEiS2-gxQHOlgm_7R-5" target="u-mqEiS2-gxQHOlgm_7R-7">
          <mxGeometry relative="1" as="geometry" />
        </mxCell>
        <mxCell id="u-mqEiS2-gxQHOlgm_7R-14" value="&lt;span style=&quot;font-size: 22px;&quot;&gt;Состояние ответа по выполненному запросу&lt;/span&gt;" style="swimlane;whiteSpace=wrap;html=1;swimlaneFillColor=none;rounded=1;" vertex="1" parent="u-mqEiS2-gxQHOlgm_7R-2">
          <mxGeometry x="17.5" y="470" width="531" height="200" as="geometry" />
        </mxCell>
        <mxCell id="u-mqEiS2-gxQHOlgm_7R-15" value="&lt;span style=&quot;font-size: 25px;&quot;&gt;После выполнения запроса,&amp;nbsp;&lt;/span&gt;&lt;span style=&quot;font-size: 25px; background-color: transparent; color: light-dark(rgb(0, 0, 0), rgb(255, 255, 255));&quot;&gt;происходит&lt;/span&gt;&lt;div&gt;&lt;span style=&quot;font-size: 25px; background-color: transparent; color: light-dark(rgb(0, 0, 0), rgb(255, 255, 255));&quot;&gt;логирование&amp;nbsp;&lt;/span&gt;&lt;span style=&quot;font-size: 25px; background-color: transparent; color: light-dark(rgb(0, 0, 0), rgb(255, 255, 255));&quot;&gt;выполненных операций&amp;nbsp;&lt;/span&gt;&lt;span style=&quot;font-size: 25px; background-color: transparent; color: light-dark(rgb(0, 0, 0), rgb(255, 255, 255));&quot;&gt;и&lt;/span&gt;&lt;/div&gt;&lt;div&gt;&lt;span style=&quot;font-size: 25px; background-color: transparent; color: light-dark(rgb(0, 0, 0), rgb(255, 255, 255));&quot;&gt;на основе статуса&amp;nbsp;&lt;/span&gt;&lt;span style=&quot;font-size: 25px; background-color: transparent; color: light-dark(rgb(0, 0, 0), rgb(255, 255, 255));&quot;&gt;выполнения запроса,&lt;/span&gt;&lt;div&gt;&lt;span style=&quot;font-size: 25px;&quot;&gt;высвечивается модальное окно&amp;nbsp;&lt;/span&gt;&lt;span style=&quot;font-size: 25px; background-color: transparent; color: light-dark(rgb(0, 0, 0), rgb(255, 255, 255));&quot;&gt;со статусом&lt;/span&gt;&lt;/div&gt;&lt;div&gt;&lt;span style=&quot;font-size: 25px;&quot;&gt;выполнения запроса.&lt;/span&gt;&lt;/div&gt;&lt;/div&gt;" style="text;html=1;align=left;verticalAlign=middle;resizable=0;points=[];autosize=1;strokeColor=none;fillColor=none;" vertex="1" parent="u-mqEiS2-gxQHOlgm_7R-14">
          <mxGeometry x="4.25" y="30" width="540" height="160" as="geometry" />
        </mxCell>
        <mxCell id="u-mqEiS2-gxQHOlgm_7R-18" value="&lt;span style=&quot;font-size: 22px;&quot;&gt;Закрытие программы&lt;/span&gt;" style="swimlane;whiteSpace=wrap;html=1;swimlaneFillColor=none;rounded=1;" vertex="1" parent="1">
          <mxGeometry x="80" y="940" width="680" height="70" as="geometry" />
        </mxCell>
        <mxCell id="u-mqEiS2-gxQHOlgm_7R-19" value="&lt;span style=&quot;font-size: 17px;&quot;&gt;Происходит завершение всех процессов, очистка кеша БД, закрытие программы&lt;/span&gt;" style="text;html=1;align=left;verticalAlign=middle;resizable=0;points=[];autosize=1;strokeColor=none;fillColor=none;" vertex="1" parent="u-mqEiS2-gxQHOlgm_7R-18">
          <mxGeometry x="20" y="30" width="660" height="30" as="geometry" />
        </mxCell>
      </root>
    </mxGraphModel>
  </diagram>
</mxfile>
